<svg width="1200" height="420" viewBox="0 0 1200 420" fill="none" xmlns="http://www.w3.org/2000/svg">
  <rect width="1200" height="420" fill="#0b1020"/>
  <defs>
    <linearGradient id="bg" x1="0" y1="0" x2="1200" y2="420" gradientUnits="userSpaceOnUse">
      <stop stop-color="#10182f"/>
      <stop offset="0.52" stop-color="#1b2d5f"/>
      <stop offset="1" stop-color="#07101d"/>
    </linearGradient>
    <radialGradient id="glow" cx="0" cy="0" r="1" gradientUnits="userSpaceOnUse" gradientTransform="translate(662 201) rotate(38) scale(505 210)">
      <stop stop-color="#2d7fff" stop-opacity="0.72"/>
      <stop offset="1" stop-color="#2d7fff" stop-opacity="0"/>
    </radialGradient>
  </defs>
  <rect width="1200" height="420" fill="url(#bg)"/>
  <rect width="1200" height="420" fill="url(#glow)"/>
  <g opacity="0.28" stroke="#9db9ff" stroke-width="1">
    <path d="M0 330H1200"/>
    <path d="M0 272H1200"/>
    <path d="M0 214H1200"/>
    <path d="M0 156H1200"/>
    <path d="M0 98H1200"/>
    <path d="M112 420L391 0"/>
    <path d="M285 420L506 0"/>
    <path d="M458 420L620 0"/>
    <path d="M631 420L734 0"/>
    <path d="M804 420L849 0"/>
    <path d="M977 420L963 0"/>
  </g>
  <g opacity="0.34">
    <circle cx="166" cy="326" r="5" fill="#7aa6ff"/>
    <circle cx="304" cy="272" r="4" fill="#7aa6ff"/>
    <circle cx="506" cy="216" r="6" fill="#bcd0ff"/>
    <circle cx="702" cy="156" r="5" fill="#7aa6ff"/>
    <circle cx="910" cy="260" r="4" fill="#bcd0ff"/>
    <circle cx="1046" cy="116" r="5" fill="#7aa6ff"/>
  </g>
  <text x="708" y="294" fill="#2d7fff" fill-opacity="0.55" font-family="JetBrains Mono, Consolas, monospace" font-size="190" font-weight="600" text-anchor="middle">AI</text>
</svg>
