<svg width="1200" height="420" viewBox="0 0 1200 420" fill="none" xmlns="http://www.w3.org/2000/svg">
  <rect width="1200" height="420" fill="#10100e"/>
  <defs>
    <linearGradient id="paper" x1="0" y1="0" x2="1" y2="1">
      <stop stop-color="#f2eadb"/>
      <stop offset="1" stop-color="#d8c7aa"/>
    </linearGradient>
  </defs>
  <rect x="106" y="74" width="314" height="226" rx="8" fill="url(#paper)" transform="rotate(-3 106 74)"/>
  <rect x="438" y="102" width="292" height="206" rx="8" fill="#e8d5a9" transform="rotate(2 438 102)"/>
  <rect x="744" y="64" width="342" height="238" rx="8" fill="#d8e2e4" transform="rotate(-1 744 64)"/>
  <g font-family="JetBrains Mono, Consolas, monospace" fill="#201812">
    <text x="142" y="126" font-size="20">AGENT PLAN</text>
    <text x="144" y="170" font-size="15">- context window</text>
    <text x="144" y="203" font-size="15">- tool boundary</text>
    <text x="144" y="236" font-size="15">- review checkpoint</text>
    <text x="476" y="152" font-size="20">CASE NOTE</text>
    <text x="480" y="196" font-size="15">builder workflow</text>
    <text x="480" y="229" font-size="15">source proof first</text>
    <text x="788" y="118" font-size="20">FOLLOW UP</text>
    <text x="792" y="162" font-size="15">Does it change</text>
    <text x="792" y="195" font-size="15">daily reading?</text>
  </g>
  <g stroke="#f0a500" stroke-width="2" stroke-dasharray="8 10" opacity="0.7">
    <path d="M355 270C453 352 573 342 676 274"/>
    <path d="M690 176C742 134 756 122 800 112"/>
  </g>
  <circle cx="118" cy="80" r="13" fill="#f0a500"/>
  <circle cx="752" cy="67" r="13" fill="#f0a500"/>
</svg>
