<svg xmlns="http://www.w3.org/2000/svg" width="384" height="384" viewBox="0 0 384 384">
  <defs>
    <filter id="grain" x="0" y="0" width="100%" height="100%">
      <feTurbulence type="fractalNoise" baseFrequency="0.018 0.19" numOctaves="4" seed="1701" />
      <feColorMatrix type="saturate" values="0.25" />
      <feComponentTransfer>
        <feFuncA type="table" tableValues="0 0.36" />
      </feComponentTransfer>
    </filter>
    <linearGradient id="deskShade" x1="0" y1="0" x2="1" y2="1">
      <stop offset="0" stop-color="#26150d" />
      <stop offset="0.48" stop-color="#170d08" />
      <stop offset="1" stop-color="#0f0704" />
    </linearGradient>
  </defs>
  <rect width="384" height="384" fill="url(#deskShade)" />
  <g opacity="0.18">
    <path d="M18 0v384M49 0v384M79 0v384M111 0v384M146 0v384M181 0v384M214 0v384M247 0v384M283 0v384M318 0v384M352 0v384" stroke="#6f452d" stroke-width="1" />
    <path d="M0 37h384M0 91h384M0 146h384M0 213h384M0 276h384M0 339h384" stroke="#2f1b12" stroke-width="1" />
  </g>
  <rect width="384" height="384" filter="url(#grain)" opacity="0.72" />
  <g><circle cx="28.3%" cy="26.9%" r="0.66" fill="#e4b984" opacity="0.12" />
<circle cx="50.9%" cy="18.9%" r="1.18" fill="#e4b984" opacity="0.07" />
<circle cx="54.7%" cy="75%" r="0.8" fill="#e4b984" opacity="0.1" />
<circle cx="11.6%" cy="74.5%" r="1.39" fill="#e4b984" opacity="0.1" />
<circle cx="37.7%" cy="36.8%" r="1.6" fill="#e4b984" opacity="0.14" />
<circle cx="15.1%" cy="74.2%" r="1.36" fill="#e4b984" opacity="0.15" />
<circle cx="10.4%" cy="59.7%" r="1.46" fill="#e4b984" opacity="0.1" />
<circle cx="86.6%" cy="49.4%" r="1.02" fill="#e4b984" opacity="0.05" />
<circle cx="27.8%" cy="24.3%" r="0.78" fill="#e4b984" opacity="0.16" />
<circle cx="21.6%" cy="39.8%" r="1.34" fill="#e4b984" opacity="0.08" />
<circle cx="71.2%" cy="97.1%" r="0.4" fill="#e4b984" opacity="0.06" />
<circle cx="30.3%" cy="75.7%" r="0.88" fill="#e4b984" opacity="0.1" />
<circle cx="83.2%" cy="90.8%" r="1.21" fill="#e4b984" opacity="0.11" />
<circle cx="13.8%" cy="65.1%" r="0.69" fill="#e4b984" opacity="0.06" />
<circle cx="34.6%" cy="29.2%" r="0.66" fill="#e4b984" opacity="0.05" />
<circle cx="71.3%" cy="88.1%" r="1.75" fill="#e4b984" opacity="0.05" />
<circle cx="22.1%" cy="20.4%" r="0.48" fill="#e4b984" opacity="0.07" />
<circle cx="38.5%" cy="96.8%" r="0.61" fill="#e4b984" opacity="0.06" />
<circle cx="97.2%" cy="34%" r="1.21" fill="#e4b984" opacity="0.15" />
<circle cx="57.5%" cy="21.6%" r="0.81" fill="#e4b984" opacity="0.08" />
<circle cx="27%" cy="86.5%" r="0.67" fill="#e4b984" opacity="0.08" />
<circle cx="77.6%" cy="84.4%" r="0.72" fill="#e4b984" opacity="0.09" />
<circle cx="85.5%" cy="31.6%" r="1.01" fill="#e4b984" opacity="0.14" />
<circle cx="87.5%" cy="17.1%" r="1.51" fill="#e4b984" opacity="0.1" />
<circle cx="76.4%" cy="57.8%" r="0.82" fill="#e4b984" opacity="0.07" />
<circle cx="78.9%" cy="87.2%" r="1.71" fill="#e4b984" opacity="0.06" />
<circle cx="87.6%" cy="91%" r="1.64" fill="#e4b984" opacity="0.16" />
<circle cx="41.3%" cy="28.6%" r="1.7" fill="#e4b984" opacity="0.05" />
<circle cx="75.8%" cy="4.8%" r="1" fill="#e4b984" opacity="0.1" />
<circle cx="87.7%" cy="80.1%" r="0.68" fill="#e4b984" opacity="0.05" />
<circle cx="84.1%" cy="35.7%" r="1.24" fill="#e4b984" opacity="0.05" />
<circle cx="12.1%" cy="28.7%" r="0.59" fill="#e4b984" opacity="0.08" />
<circle cx="89%" cy="5.7%" r="0.6" fill="#e4b984" opacity="0.13" />
<circle cx="77.9%" cy="60.1%" r="1.08" fill="#e4b984" opacity="0.06" />
<circle cx="79.9%" cy="50.3%" r="1.47" fill="#e4b984" opacity="0.14" />
<circle cx="37.4%" cy="15.1%" r="1.43" fill="#e4b984" opacity="0.06" />
<circle cx="69.3%" cy="53.1%" r="0.96" fill="#e4b984" opacity="0.12" />
<circle cx="83.1%" cy="52.3%" r="0.79" fill="#e4b984" opacity="0.13" />
<circle cx="34.5%" cy="86.7%" r="1.46" fill="#e4b984" opacity="0.05" />
<circle cx="29.8%" cy="16.9%" r="1.02" fill="#e4b984" opacity="0.08" />
<circle cx="90.7%" cy="59.8%" r="0.73" fill="#e4b984" opacity="0.09" />
<circle cx="28.2%" cy="16.2%" r="0.57" fill="#e4b984" opacity="0.15" />
<circle cx="94.4%" cy="70.4%" r="0.43" fill="#e4b984" opacity="0.09" />
<circle cx="9.2%" cy="0.7%" r="1.1" fill="#e4b984" opacity="0.15" />
<circle cx="79.6%" cy="65.4%" r="1.43" fill="#e4b984" opacity="0.06" />
<circle cx="60.4%" cy="52.2%" r="0.87" fill="#e4b984" opacity="0.07" />
<circle cx="23.5%" cy="6.6%" r="1.73" fill="#e4b984" opacity="0.13" />
<circle cx="33%" cy="77.2%" r="0.79" fill="#e4b984" opacity="0.11" />
<circle cx="45.3%" cy="42.4%" r="1.34" fill="#e4b984" opacity="0.12" />
<circle cx="80.4%" cy="7.5%" r="1.58" fill="#e4b984" opacity="0.12" />
<circle cx="34.5%" cy="86.5%" r="1.05" fill="#e4b984" opacity="0.16" />
<circle cx="28.1%" cy="6.8%" r="0.66" fill="#e4b984" opacity="0.07" />
<circle cx="11.9%" cy="2.3%" r="1.05" fill="#e4b984" opacity="0.06" />
<circle cx="74.1%" cy="82.8%" r="1.74" fill="#e4b984" opacity="0.08" />
<circle cx="20.6%" cy="93.7%" r="0.58" fill="#e4b984" opacity="0.08" />
<circle cx="21.9%" cy="6.6%" r="1.05" fill="#e4b984" opacity="0.07" />
<circle cx="49.2%" cy="2.3%" r="1.75" fill="#e4b984" opacity="0.05" />
<circle cx="43.2%" cy="37.9%" r="0.74" fill="#e4b984" opacity="0.1" />
<circle cx="86.1%" cy="10.3%" r="1.49" fill="#e4b984" opacity="0.08" />
<circle cx="73.3%" cy="56.1%" r="1.77" fill="#e4b984" opacity="0.11" />
<circle cx="4.2%" cy="50.9%" r="0.57" fill="#e4b984" opacity="0.12" />
<circle cx="36.8%" cy="98.5%" r="0.9" fill="#e4b984" opacity="0.15" />
<circle cx="78.2%" cy="23.2%" r="0.81" fill="#e4b984" opacity="0.1" />
<circle cx="4.5%" cy="3.8%" r="0.38" fill="#e4b984" opacity="0.14" />
<circle cx="31.9%" cy="14.9%" r="0.5" fill="#e4b984" opacity="0.14" />
<circle cx="82.7%" cy="62.5%" r="1.48" fill="#e4b984" opacity="0.12" />
<circle cx="17.9%" cy="30.2%" r="1.25" fill="#e4b984" opacity="0.09" />
<circle cx="31.8%" cy="73.2%" r="0.62" fill="#e4b984" opacity="0.07" />
<circle cx="27.2%" cy="24.9%" r="1.39" fill="#e4b984" opacity="0.15" />
<circle cx="18.5%" cy="5.6%" r="1.22" fill="#e4b984" opacity="0.07" />
<circle cx="31.5%" cy="46.6%" r="0.82" fill="#e4b984" opacity="0.08" />
<circle cx="96.9%" cy="69.1%" r="0.54" fill="#e4b984" opacity="0.1" />
<circle cx="55.6%" cy="82.2%" r="1.14" fill="#e4b984" opacity="0.07" />
<circle cx="22.9%" cy="88.3%" r="1.02" fill="#e4b984" opacity="0.12" />
<circle cx="81.6%" cy="11%" r="1.23" fill="#e4b984" opacity="0.13" />
<circle cx="98.4%" cy="84%" r="0.93" fill="#e4b984" opacity="0.13" />
<circle cx="84.6%" cy="64.5%" r="1.22" fill="#e4b984" opacity="0.12" />
<circle cx="47.2%" cy="61.6%" r="0.77" fill="#e4b984" opacity="0.1" />
<circle cx="98.6%" cy="92%" r="0.39" fill="#e4b984" opacity="0.07" />
<circle cx="22.7%" cy="4.2%" r="0.68" fill="#e4b984" opacity="0.07" />
<circle cx="15.1%" cy="32.7%" r="0.61" fill="#e4b984" opacity="0.07" />
<circle cx="45.9%" cy="73.6%" r="0.49" fill="#e4b984" opacity="0.05" />
<circle cx="11.7%" cy="94.1%" r="0.81" fill="#e4b984" opacity="0.08" />
<circle cx="75.6%" cy="16.1%" r="0.91" fill="#e4b984" opacity="0.13" />
<circle cx="12.7%" cy="36.6%" r="1.31" fill="#e4b984" opacity="0.12" />
<circle cx="8.7%" cy="75.6%" r="1.56" fill="#e4b984" opacity="0.06" />
<circle cx="80.4%" cy="64.1%" r="0.66" fill="#e4b984" opacity="0.15" />
<circle cx="13.3%" cy="12.4%" r="1.71" fill="#e4b984" opacity="0.1" />
<circle cx="38.4%" cy="21.5%" r="0.86" fill="#e4b984" opacity="0.15" />
<circle cx="91.3%" cy="28.4%" r="0.6" fill="#e4b984" opacity="0.11" /></g>
</svg>