<svg xmlns="http://www.w3.org/2000/svg" width="320" height="320" viewBox="0 0 320 320">
  <defs>
    <filter id="fiber" x="0" y="0" width="100%" height="100%">
      <feTurbulence type="fractalNoise" baseFrequency="0.025 0.42" numOctaves="3" seed="1702" />
      <feColorMatrix type="matrix" values="0.55 0 0 0 0.38 0 0.45 0 0 0.31 0 0 0.32 0 0.22 0 0 0 0.32 0" />
    </filter>
    <linearGradient id="paperShade" x1="0" y1="0" x2="1" y2="1">
      <stop offset="0" stop-color="#f8e8cd" />
      <stop offset="0.58" stop-color="#eed6ae" />
      <stop offset="1" stop-color="#d8bd91" />
    </linearGradient>
  </defs>
  <rect width="320" height="320" fill="url(#paperShade)" />
  <rect width="320" height="320" filter="url(#fiber)" opacity="0.42" />
  <g opacity="0.12">
    <path d="M0 17h320M0 51h320M0 88h320M0 123h320M0 159h320M0 196h320M0 232h320M0 268h320M0 303h320" stroke="#8b6944" stroke-width="0.8" />
    <path d="M22 0v320M57 0v320M91 0v320M127 0v320M163 0v320M198 0v320M233 0v320M268 0v320M303 0v320" stroke="#fff6db" stroke-width="0.6" />
  </g>
  <g><circle cx="28.3%" cy="36%" r="1.66" fill="#5a3924" opacity="0.16" />
<circle cx="17.6%" cy="93.7%" r="0.36" fill="#5a3924" opacity="0.07" />
<circle cx="5.6%" cy="80.8%" r="1.46" fill="#5a3924" opacity="0.07" />
<circle cx="9.3%" cy="69.6%" r="1.72" fill="#5a3924" opacity="0.19" />
<circle cx="53%" cy="38.3%" r="0.58" fill="#5a3924" opacity="0.16" />
<circle cx="84.2%" cy="30.5%" r="0.89" fill="#5a3924" opacity="0.06" />
<circle cx="22.1%" cy="3.9%" r="0.88" fill="#5a3924" opacity="0.09" />
<circle cx="67.6%" cy="11.1%" r="0.42" fill="#5a3924" opacity="0.08" />
<circle cx="24.1%" cy="84.9%" r="1.36" fill="#5a3924" opacity="0.19" />
<circle cx="7.2%" cy="22%" r="1.19" fill="#5a3924" opacity="0.12" />
<circle cx="44.4%" cy="86.1%" r="1.21" fill="#5a3924" opacity="0.15" />
<circle cx="90.7%" cy="75.6%" r="1.45" fill="#5a3924" opacity="0.08" />
<circle cx="13%" cy="26.2%" r="1.49" fill="#5a3924" opacity="0.12" />
<circle cx="18.8%" cy="43.3%" r="0.39" fill="#5a3924" opacity="0.13" />
<circle cx="31.1%" cy="85.7%" r="1.1" fill="#5a3924" opacity="0.16" />
<circle cx="36%" cy="44%" r="1.75" fill="#5a3924" opacity="0.09" />
<circle cx="54.5%" cy="86.2%" r="1.54" fill="#5a3924" opacity="0.12" />
<circle cx="15.9%" cy="63.8%" r="1.59" fill="#5a3924" opacity="0.14" />
<circle cx="32.4%" cy="0.5%" r="1.59" fill="#5a3924" opacity="0.13" />
<circle cx="4.1%" cy="7.1%" r="0.82" fill="#5a3924" opacity="0.08" />
<circle cx="3.2%" cy="94.4%" r="0.86" fill="#5a3924" opacity="0.18" />
<circle cx="16.6%" cy="78.5%" r="0.38" fill="#5a3924" opacity="0.07" />
<circle cx="46.1%" cy="99.2%" r="0.39" fill="#5a3924" opacity="0.19" />
<circle cx="94.8%" cy="96.7%" r="0.86" fill="#5a3924" opacity="0.12" />
<circle cx="89.4%" cy="16.4%" r="0.6" fill="#5a3924" opacity="0.08" />
<circle cx="16.6%" cy="38.9%" r="0.85" fill="#5a3924" opacity="0.1" />
<circle cx="74.2%" cy="52.6%" r="0.66" fill="#5a3924" opacity="0.09" />
<circle cx="63.7%" cy="17%" r="1.03" fill="#5a3924" opacity="0.16" />
<circle cx="75.6%" cy="85.9%" r="0.9" fill="#5a3924" opacity="0.09" />
<circle cx="45.2%" cy="84.7%" r="1.23" fill="#5a3924" opacity="0.11" />
<circle cx="78.8%" cy="64.5%" r="0.96" fill="#5a3924" opacity="0.07" />
<circle cx="77.9%" cy="76%" r="0.43" fill="#5a3924" opacity="0.18" />
<circle cx="12.6%" cy="35.1%" r="0.95" fill="#5a3924" opacity="0.19" />
<circle cx="21.7%" cy="74.8%" r="1.18" fill="#5a3924" opacity="0.15" />
<circle cx="38.5%" cy="3.6%" r="1.18" fill="#5a3924" opacity="0.06" />
<circle cx="72.7%" cy="16.3%" r="1.12" fill="#5a3924" opacity="0.13" />
<circle cx="96.1%" cy="26.6%" r="0.59" fill="#5a3924" opacity="0.12" />
<circle cx="11.4%" cy="18.5%" r="0.46" fill="#5a3924" opacity="0.08" />
<circle cx="4.8%" cy="34.3%" r="1.09" fill="#5a3924" opacity="0.16" />
<circle cx="7.8%" cy="46.7%" r="0.95" fill="#5a3924" opacity="0.09" />
<circle cx="22.2%" cy="84.4%" r="1.77" fill="#5a3924" opacity="0.13" />
<circle cx="82.4%" cy="7%" r="0.47" fill="#5a3924" opacity="0.17" />
<circle cx="58%" cy="47.9%" r="0.52" fill="#5a3924" opacity="0.12" />
<circle cx="23.5%" cy="73.4%" r="0.88" fill="#5a3924" opacity="0.19" />
<circle cx="44.6%" cy="25.2%" r="1.48" fill="#5a3924" opacity="0.14" />
<circle cx="61.1%" cy="44.3%" r="1.41" fill="#5a3924" opacity="0.14" />
<circle cx="63.9%" cy="94.2%" r="0.86" fill="#5a3924" opacity="0.2" />
<circle cx="96.6%" cy="31.2%" r="0.77" fill="#5a3924" opacity="0.06" />
<circle cx="30.2%" cy="89.5%" r="0.45" fill="#5a3924" opacity="0.14" />
<circle cx="89%" cy="78.7%" r="0.96" fill="#5a3924" opacity="0.09" />
<circle cx="29.6%" cy="12.5%" r="0.79" fill="#5a3924" opacity="0.13" />
<circle cx="97.3%" cy="14.8%" r="0.86" fill="#5a3924" opacity="0.2" />
<circle cx="15.4%" cy="73.1%" r="0.41" fill="#5a3924" opacity="0.15" />
<circle cx="79%" cy="34%" r="1.62" fill="#5a3924" opacity="0.19" />
<circle cx="59.9%" cy="62.7%" r="0.76" fill="#5a3924" opacity="0.11" />
<circle cx="45%" cy="10%" r="0.46" fill="#5a3924" opacity="0.11" />
<circle cx="62.6%" cy="58.2%" r="1.26" fill="#5a3924" opacity="0.18" />
<circle cx="71.1%" cy="40.9%" r="0.6" fill="#5a3924" opacity="0.13" />
<circle cx="13.9%" cy="57.1%" r="1.58" fill="#5a3924" opacity="0.16" />
<circle cx="64.7%" cy="24.9%" r="0.9" fill="#5a3924" opacity="0.11" />
<circle cx="16.3%" cy="44.6%" r="1.15" fill="#5a3924" opacity="0.12" />
<circle cx="89.1%" cy="67.7%" r="1.58" fill="#5a3924" opacity="0.16" />
<circle cx="60.7%" cy="91%" r="1.65" fill="#5a3924" opacity="0.16" />
<circle cx="43.1%" cy="21.2%" r="1.31" fill="#5a3924" opacity="0.06" />
<circle cx="59.5%" cy="81.1%" r="0.92" fill="#5a3924" opacity="0.2" />
<circle cx="97%" cy="52.4%" r="1.68" fill="#5a3924" opacity="0.13" />
<circle cx="36%" cy="74.4%" r="1.4" fill="#5a3924" opacity="0.06" />
<circle cx="85.1%" cy="45.5%" r="1.58" fill="#5a3924" opacity="0.14" />
<circle cx="69.7%" cy="96.8%" r="1.32" fill="#5a3924" opacity="0.18" />
<circle cx="54.5%" cy="33.2%" r="1.78" fill="#5a3924" opacity="0.14" />
<circle cx="98.3%" cy="63.1%" r="0.45" fill="#5a3924" opacity="0.14" />
<circle cx="69.8%" cy="60.6%" r="1.02" fill="#5a3924" opacity="0.15" />
<circle cx="75.3%" cy="31.9%" r="1.6" fill="#5a3924" opacity="0.14" />
<circle cx="74.2%" cy="80%" r="0.74" fill="#5a3924" opacity="0.09" />
<circle cx="84.9%" cy="89.9%" r="0.61" fill="#5a3924" opacity="0.16" />
<circle cx="7%" cy="76.6%" r="1.33" fill="#5a3924" opacity="0.17" />
<circle cx="11.8%" cy="69.5%" r="1.1" fill="#5a3924" opacity="0.17" />
<circle cx="77.2%" cy="25.9%" r="1.31" fill="#5a3924" opacity="0.11" />
<circle cx="68.6%" cy="95.9%" r="1.67" fill="#5a3924" opacity="0.17" />
<circle cx="93.2%" cy="82.2%" r="0.93" fill="#5a3924" opacity="0.12" />
<circle cx="78.2%" cy="66.7%" r="0.76" fill="#5a3924" opacity="0.07" />
<circle cx="49.4%" cy="98.2%" r="1.56" fill="#5a3924" opacity="0.19" />
<circle cx="13.5%" cy="61.8%" r="1.41" fill="#5a3924" opacity="0.17" />
<circle cx="68.1%" cy="75.9%" r="0.8" fill="#5a3924" opacity="0.16" />
<circle cx="92.9%" cy="85.6%" r="1.78" fill="#5a3924" opacity="0.18" />
<circle cx="98.2%" cy="49.4%" r="0.71" fill="#5a3924" opacity="0.09" />
<circle cx="31.7%" cy="39.1%" r="1.55" fill="#5a3924" opacity="0.14" />
<circle cx="70.5%" cy="97.5%" r="1.69" fill="#5a3924" opacity="0.11" />
<circle cx="50.4%" cy="24.7%" r="1.34" fill="#5a3924" opacity="0.07" />
<circle cx="8.3%" cy="89.1%" r="0.72" fill="#5a3924" opacity="0.08" />
<circle cx="39%" cy="81.3%" r="0.57" fill="#5a3924" opacity="0.12" />
<circle cx="95%" cy="58.9%" r="1.35" fill="#5a3924" opacity="0.07" />
<circle cx="77.3%" cy="50.5%" r="1.41" fill="#5a3924" opacity="0.19" />
<circle cx="97.9%" cy="14.7%" r="0.55" fill="#5a3924" opacity="0.12" />
<circle cx="11.8%" cy="75.1%" r="1.05" fill="#5a3924" opacity="0.17" />
<circle cx="47.8%" cy="75.8%" r="1.79" fill="#5a3924" opacity="0.06" />
<circle cx="88.5%" cy="27.9%" r="1.58" fill="#5a3924" opacity="0.2" />
<circle cx="75.4%" cy="42.9%" r="0.61" fill="#5a3924" opacity="0.11" />
<circle cx="42.6%" cy="72.1%" r="1.05" fill="#5a3924" opacity="0.11" />
<circle cx="3.5%" cy="98.8%" r="0.76" fill="#5a3924" opacity="0.07" />
<circle cx="43.6%" cy="52.5%" r="0.6" fill="#5a3924" opacity="0.15" />
<circle cx="95.4%" cy="40.9%" r="1.42" fill="#5a3924" opacity="0.13" />
<circle cx="97%" cy="19.3%" r="1.5" fill="#5a3924" opacity="0.15" />
<circle cx="60.5%" cy="44.4%" r="0.47" fill="#5a3924" opacity="0.18" />
<circle cx="2.9%" cy="81.1%" r="0.84" fill="#5a3924" opacity="0.09" />
<circle cx="14.8%" cy="57.5%" r="0.75" fill="#5a3924" opacity="0.13" />
<circle cx="69.5%" cy="91%" r="0.41" fill="#5a3924" opacity="0.19" />
<circle cx="98.3%" cy="26.8%" r="0.46" fill="#5a3924" opacity="0.14" />
<circle cx="84%" cy="63%" r="1.09" fill="#5a3924" opacity="0.14" />
<circle cx="49.1%" cy="54.7%" r="1.03" fill="#5a3924" opacity="0.07" />
<circle cx="39.7%" cy="19.7%" r="1.73" fill="#5a3924" opacity="0.18" />
<circle cx="32.8%" cy="88.4%" r="0.61" fill="#5a3924" opacity="0.18" />
<circle cx="18%" cy="71.6%" r="1.04" fill="#5a3924" opacity="0.07" />
<circle cx="29%" cy="38.7%" r="0.68" fill="#5a3924" opacity="0.14" />
<circle cx="28.9%" cy="27.5%" r="0.92" fill="#5a3924" opacity="0.15" />
<circle cx="73.3%" cy="31.8%" r="1.17" fill="#5a3924" opacity="0.12" />
<circle cx="5.4%" cy="35.7%" r="1.34" fill="#5a3924" opacity="0.1" />
<circle cx="56.3%" cy="91%" r="1.47" fill="#5a3924" opacity="0.07" />
<circle cx="56%" cy="57.3%" r="0.97" fill="#5a3924" opacity="0.13" />
<circle cx="78.2%" cy="50.5%" r="1.49" fill="#5a3924" opacity="0.18" />
<circle cx="72.6%" cy="70%" r="0.84" fill="#5a3924" opacity="0.19" />
<circle cx="60.2%" cy="99.9%" r="1.4" fill="#5a3924" opacity="0.19" />
<circle cx="94.2%" cy="3.9%" r="0.9" fill="#5a3924" opacity="0.15" />
<circle cx="11.5%" cy="60.5%" r="1.47" fill="#5a3924" opacity="0.17" />
<circle cx="28.2%" cy="7.5%" r="0.96" fill="#5a3924" opacity="0.12" />
<circle cx="53.5%" cy="92%" r="0.51" fill="#5a3924" opacity="0.16" />
<circle cx="26.5%" cy="45.7%" r="1.69" fill="#5a3924" opacity="0.08" />
<circle cx="99.1%" cy="31.4%" r="1.7" fill="#5a3924" opacity="0.1" />
<circle cx="19.1%" cy="29.5%" r="1.48" fill="#5a3924" opacity="0.2" />
<circle cx="89.2%" cy="62.6%" r="1.05" fill="#5a3924" opacity="0.19" />
<circle cx="2.8%" cy="75.4%" r="0.51" fill="#5a3924" opacity="0.13" />
<circle cx="84.9%" cy="17.5%" r="0.66" fill="#5a3924" opacity="0.19" />
<circle cx="87.1%" cy="97.9%" r="0.64" fill="#5a3924" opacity="0.11" />
<circle cx="16.2%" cy="8%" r="1.73" fill="#5a3924" opacity="0.08" />
<circle cx="95.6%" cy="31.7%" r="1" fill="#5a3924" opacity="0.18" />
<circle cx="87%" cy="89.5%" r="0.57" fill="#5a3924" opacity="0.11" />
<circle cx="24.4%" cy="85.9%" r="0.97" fill="#5a3924" opacity="0.13" />
<circle cx="36%" cy="55.9%" r="0.7" fill="#5a3924" opacity="0.1" />
<circle cx="56.3%" cy="30%" r="1.73" fill="#5a3924" opacity="0.1" />
<circle cx="54.4%" cy="65.2%" r="1.72" fill="#5a3924" opacity="0.12" />
<circle cx="30.8%" cy="9.5%" r="0.74" fill="#5a3924" opacity="0.14" />
<circle cx="58.9%" cy="97.1%" r="1.47" fill="#5a3924" opacity="0.19" />
<circle cx="71.7%" cy="94.4%" r="0.7" fill="#5a3924" opacity="0.08" />
<circle cx="22.5%" cy="41.1%" r="1.08" fill="#5a3924" opacity="0.18" />
<circle cx="69.3%" cy="58.2%" r="1.29" fill="#5a3924" opacity="0.15" /></g>
</svg>