<svg xmlns="http://www.w3.org/2000/svg" width="320" height="320" viewBox="0 0 320 320">
  <defs>
    <filter id="warmFiber" x="0" y="0" width="100%" height="100%">
      <feTurbulence type="fractalNoise" baseFrequency="0.032 0.36" numOctaves="3" seed="1703" />
      <feColorMatrix type="matrix" values="0.5 0 0 0 0.42 0 0.42 0 0 0.33 0 0 0.25 0 0.2 0 0 0 0.34 0" />
    </filter>
    <linearGradient id="warmShade" x1="0" y1="0" x2="1" y2="1">
      <stop offset="0" stop-color="#f3ddb2" />
      <stop offset="0.56" stop-color="#e6bf82" />
      <stop offset="1" stop-color="#c9975f" />
    </linearGradient>
  </defs>
  <rect width="320" height="320" fill="url(#warmShade)" />
  <rect width="320" height="320" filter="url(#warmFiber)" opacity="0.38" />
  <g><circle cx="28.4%" cy="45.1%" r="1.2" fill="#633e25" opacity="0.15" />
<circle cx="84.2%" cy="68.4%" r="0.98" fill="#633e25" opacity="0.06" />
<circle cx="56.5%" cy="86.5%" r="0.66" fill="#633e25" opacity="0.15" />
<circle cx="7%" cy="64.8%" r="0.6" fill="#633e25" opacity="0.1" />
<circle cx="68.4%" cy="39.8%" r="1.01" fill="#633e25" opacity="0.13" />
<circle cx="53.3%" cy="86.8%" r="0.41" fill="#633e25" opacity="0.07" />
<circle cx="33.8%" cy="48.1%" r="1.75" fill="#633e25" opacity="0.06" />
<circle cx="48.6%" cy="72.8%" r="1.27" fill="#633e25" opacity="0.1" />
<circle cx="20.4%" cy="45.6%" r="0.48" fill="#633e25" opacity="0.16" />
<circle cx="92.9%" cy="4.2%" r="1.04" fill="#633e25" opacity="0.13" />
<circle cx="17.7%" cy="75.1%" r="0.57" fill="#633e25" opacity="0.09" />
<circle cx="51.1%" cy="75.5%" r="0.58" fill="#633e25" opacity="0.17" />
<circle cx="42.8%" cy="61.6%" r="1.77" fill="#633e25" opacity="0.09" />
<circle cx="23.9%" cy="21.5%" r="1.54" fill="#633e25" opacity="0.17" />
<circle cx="27.6%" cy="42.1%" r="1.55" fill="#633e25" opacity="0.1" />
<circle cx="0.7%" cy="99.9%" r="1.75" fill="#633e25" opacity="0.1" />
<circle cx="87%" cy="52%" r="1.14" fill="#633e25" opacity="0.14" />
<circle cx="93.2%" cy="30.9%" r="1.12" fill="#633e25" opacity="0.07" />
<circle cx="67.6%" cy="67%" r="0.53" fill="#633e25" opacity="0.07" />
<circle cx="50.6%" cy="92.6%" r="0.83" fill="#633e25" opacity="0.17" />
<circle cx="79.4%" cy="2.3%" r="1.04" fill="#633e25" opacity="0.12" />
<circle cx="55.6%" cy="72.6%" r="1.48" fill="#633e25" opacity="0.16" />
<circle cx="6.8%" cy="66.8%" r="1.22" fill="#633e25" opacity="0.17" />
<circle cx="2.1%" cy="76.2%" r="1.67" fill="#633e25" opacity="0.1" />
<circle cx="2.4%" cy="75.1%" r="0.38" fill="#633e25" opacity="0.08" />
<circle cx="54.3%" cy="90.6%" r="1.45" fill="#633e25" opacity="0.13" />
<circle cx="60.9%" cy="14.1%" r="1.12" fill="#633e25" opacity="0.12" />
<circle cx="86%" cy="5.4%" r="0.36" fill="#633e25" opacity="0.11" />
<circle cx="75.3%" cy="67.1%" r="0.79" fill="#633e25" opacity="0.17" />
<circle cx="2.7%" cy="89.3%" r="1.78" fill="#633e25" opacity="0.13" />
<circle cx="73.5%" cy="93.3%" r="0.69" fill="#633e25" opacity="0.07" />
<circle cx="43.6%" cy="23.2%" r="1.71" fill="#633e25" opacity="0.11" />
<circle cx="36.3%" cy="64.5%" r="1.31" fill="#633e25" opacity="0.08" />
<circle cx="65.5%" cy="89.5%" r="1.28" fill="#633e25" opacity="0.09" />
<circle cx="97.2%" cy="57%" r="0.88" fill="#633e25" opacity="0.09" />
<circle cx="8.1%" cy="17.4%" r="0.81" fill="#633e25" opacity="0.17" />
<circle cx="22.9%" cy="0.2%" r="1.67" fill="#633e25" opacity="0.09" />
<circle cx="39.8%" cy="84.8%" r="1.58" fill="#633e25" opacity="0.12" />
<circle cx="75.1%" cy="81.9%" r="0.72" fill="#633e25" opacity="0.11" />
<circle cx="85.9%" cy="76.4%" r="0.87" fill="#633e25" opacity="0.09" />
<circle cx="53.8%" cy="9.1%" r="1.37" fill="#633e25" opacity="0.14" />
<circle cx="36.6%" cy="97.8%" r="0.36" fill="#633e25" opacity="0.14" />
<circle cx="21.6%" cy="25.5%" r="0.62" fill="#633e25" opacity="0.12" />
<circle cx="37.8%" cy="46%" r="0.66" fill="#633e25" opacity="0.18" />
<circle cx="9.7%" cy="85%" r="1.52" fill="#633e25" opacity="0.07" />
<circle cx="61.8%" cy="36.4%" r="0.49" fill="#633e25" opacity="0.17" />
<circle cx="4.3%" cy="81.9%" r="1.44" fill="#633e25" opacity="0.1" />
<circle cx="60.2%" cy="85.3%" r="0.76" fill="#633e25" opacity="0.12" />
<circle cx="15.1%" cy="36.7%" r="1" fill="#633e25" opacity="0.12" />
<circle cx="97.6%" cy="49.8%" r="1.79" fill="#633e25" opacity="0.15" />
<circle cx="24.6%" cy="38.5%" r="0.53" fill="#633e25" opacity="0.07" />
<circle cx="66.6%" cy="22.9%" r="1.07" fill="#633e25" opacity="0.15" />
<circle cx="18.8%" cy="43.9%" r="1.22" fill="#633e25" opacity="0.08" />
<circle cx="83.9%" cy="85.3%" r="1.49" fill="#633e25" opacity="0.14" />
<circle cx="99.3%" cy="31.7%" r="0.94" fill="#633e25" opacity="0.11" />
<circle cx="68.2%" cy="13.4%" r="1.32" fill="#633e25" opacity="0.11" />
<circle cx="75.9%" cy="14.1%" r="0.77" fill="#633e25" opacity="0.14" />
<circle cx="99%" cy="43.9%" r="0.47" fill="#633e25" opacity="0.12" />
<circle cx="41.7%" cy="3.9%" r="1.67" fill="#633e25" opacity="0.08" />
<circle cx="56.1%" cy="93.6%" r="1.48" fill="#633e25" opacity="0.08" />
<circle cx="28.5%" cy="38.3%" r="1.72" fill="#633e25" opacity="0.08" />
<circle cx="41.5%" cy="36.9%" r="0.8" fill="#633e25" opacity="0.13" />
<circle cx="43.3%" cy="58.8%" r="1.05" fill="#633e25" opacity="0.18" />
<circle cx="81.7%" cy="38.5%" r="0.79" fill="#633e25" opacity="0.09" />
<circle cx="87.1%" cy="47.4%" r="1.34" fill="#633e25" opacity="0.08" />
<circle cx="11.3%" cy="42.4%" r="0.44" fill="#633e25" opacity="0.1" />
<circle cx="54.2%" cy="18.6%" r="1.55" fill="#633e25" opacity="0.14" />
<circle cx="38.3%" cy="17.8%" r="1.09" fill="#633e25" opacity="0.06" />
<circle cx="12.2%" cy="68.6%" r="1.24" fill="#633e25" opacity="0.16" />
<circle cx="90.6%" cy="60.8%" r="0.9" fill="#633e25" opacity="0.17" />
<circle cx="65%" cy="79.7%" r="1.52" fill="#633e25" opacity="0.16" />
<circle cx="42.7%" cy="52.2%" r="1.49" fill="#633e25" opacity="0.15" />
<circle cx="95%" cy="81.5%" r="0.61" fill="#633e25" opacity="0.17" />
<circle cx="25.5%" cy="71.8%" r="0.46" fill="#633e25" opacity="0.16" />
<circle cx="88.1%" cy="68.8%" r="1.45" fill="#633e25" opacity="0.15" />
<circle cx="15.6%" cy="69.3%" r="1.74" fill="#633e25" opacity="0.16" />
<circle cx="39.1%" cy="74.5%" r="0.97" fill="#633e25" opacity="0.17" />
<circle cx="7.1%" cy="90.3%" r="0.41" fill="#633e25" opacity="0.09" />
<circle cx="38.5%" cy="99.9%" r="1.51" fill="#633e25" opacity="0.1" />
<circle cx="63.8%" cy="60.2%" r="1.18" fill="#633e25" opacity="0.13" />
<circle cx="41.2%" cy="0.7%" r="0.91" fill="#633e25" opacity="0.18" />
<circle cx="52.9%" cy="22.7%" r="1.17" fill="#633e25" opacity="0.17" />
<circle cx="15.3%" cy="29.6%" r="0.57" fill="#633e25" opacity="0.1" />
<circle cx="60.6%" cy="35.8%" r="0.68" fill="#633e25" opacity="0.16" />
<circle cx="73.1%" cy="34.6%" r="0.79" fill="#633e25" opacity="0.08" />
<circle cx="87.7%" cy="23.2%" r="1.31" fill="#633e25" opacity="0.1" />
<circle cx="83%" cy="14.1%" r="0.99" fill="#633e25" opacity="0.09" />
<circle cx="27.7%" cy="82.5%" r="1.67" fill="#633e25" opacity="0.08" />
<circle cx="62.5%" cy="28%" r="0.36" fill="#633e25" opacity="0.1" />
<circle cx="25.2%" cy="49.7%" r="0.83" fill="#633e25" opacity="0.14" />
<circle cx="52.7%" cy="65%" r="0.4" fill="#633e25" opacity="0.14" />
<circle cx="16.1%" cy="19.2%" r="0.72" fill="#633e25" opacity="0.18" />
<circle cx="74%" cy="66.5%" r="0.66" fill="#633e25" opacity="0.09" />
<circle cx="49%" cy="20.9%" r="1.72" fill="#633e25" opacity="0.07" />
<circle cx="63.2%" cy="6%" r="0.8" fill="#633e25" opacity="0.17" />
<circle cx="87.6%" cy="53%" r="1.66" fill="#633e25" opacity="0.14" />
<circle cx="91%" cy="25.6%" r="1.54" fill="#633e25" opacity="0.17" />
<circle cx="94.2%" cy="71.5%" r="1.05" fill="#633e25" opacity="0.13" />
<circle cx="62.5%" cy="28.4%" r="0.37" fill="#633e25" opacity="0.13" />
<circle cx="95.5%" cy="35.6%" r="1.5" fill="#633e25" opacity="0.08" />
<circle cx="96.5%" cy="27%" r="0.69" fill="#633e25" opacity="0.07" />
<circle cx="28.2%" cy="9.2%" r="1.68" fill="#633e25" opacity="0.06" />
<circle cx="88.9%" cy="48.3%" r="1.14" fill="#633e25" opacity="0.08" />
<circle cx="66.7%" cy="19.5%" r="1.04" fill="#633e25" opacity="0.18" />
<circle cx="54.4%" cy="94.9%" r="1.33" fill="#633e25" opacity="0.16" />
<circle cx="32.2%" cy="70.7%" r="1.02" fill="#633e25" opacity="0.1" />
<circle cx="52.3%" cy="62.1%" r="0.76" fill="#633e25" opacity="0.11" />
<circle cx="82.3%" cy="14.7%" r="0.97" fill="#633e25" opacity="0.18" />
<circle cx="90.9%" cy="12%" r="1.08" fill="#633e25" opacity="0.11" />
<circle cx="82.5%" cy="77.9%" r="1.71" fill="#633e25" opacity="0.13" />
<circle cx="15.4%" cy="3%" r="1.63" fill="#633e25" opacity="0.1" />
<circle cx="58.9%" cy="44.2%" r="0.89" fill="#633e25" opacity="0.15" />
<circle cx="75.5%" cy="76.1%" r="1.1" fill="#633e25" opacity="0.09" />
<circle cx="31.7%" cy="94.2%" r="0.41" fill="#633e25" opacity="0.16" />
<circle cx="75%" cy="97.4%" r="1.22" fill="#633e25" opacity="0.08" />
<circle cx="30.3%" cy="0.8%" r="1.18" fill="#633e25" opacity="0.14" />
<circle cx="2.5%" cy="56.2%" r="0.71" fill="#633e25" opacity="0.07" />
<circle cx="89.8%" cy="80.8%" r="1.34" fill="#633e25" opacity="0.13" />
<circle cx="43.2%" cy="20.8%" r="1.24" fill="#633e25" opacity="0.11" />
<circle cx="28.2%" cy="3.1%" r="0.6" fill="#633e25" opacity="0.13" />
<circle cx="72.2%" cy="48.8%" r="0.84" fill="#633e25" opacity="0.07" />
<circle cx="5.6%" cy="52.8%" r="0.8" fill="#633e25" opacity="0.1" />
<circle cx="28.8%" cy="54.6%" r="0.8" fill="#633e25" opacity="0.08" />
<circle cx="63.8%" cy="51.9%" r="1.04" fill="#633e25" opacity="0.1" />
<circle cx="72.2%" cy="33.8%" r="1.46" fill="#633e25" opacity="0.16" />
<circle cx="48%" cy="35.7%" r="0.61" fill="#633e25" opacity="0.07" />
<circle cx="18.3%" cy="41.8%" r="1.26" fill="#633e25" opacity="0.15" />
<circle cx="8.9%" cy="86.3%" r="0.77" fill="#633e25" opacity="0.13" />
<circle cx="58.2%" cy="31.3%" r="0.69" fill="#633e25" opacity="0.12" />
<circle cx="87%" cy="21.4%" r="1.36" fill="#633e25" opacity="0.09" />
<circle cx="57.3%" cy="43.5%" r="0.84" fill="#633e25" opacity="0.09" />
<circle cx="77.2%" cy="40.2%" r="0.65" fill="#633e25" opacity="0.17" />
<circle cx="36%" cy="57.5%" r="0.98" fill="#633e25" opacity="0.13" />
<circle cx="75.4%" cy="24.7%" r="1.44" fill="#633e25" opacity="0.13" />
<circle cx="31.7%" cy="95%" r="0.91" fill="#633e25" opacity="0.08" />
<circle cx="5.6%" cy="98.1%" r="1.73" fill="#633e25" opacity="0.16" />
<circle cx="42.1%" cy="81.1%" r="0.89" fill="#633e25" opacity="0.13" />
<circle cx="29.4%" cy="39.1%" r="1.75" fill="#633e25" opacity="0.11" />
<circle cx="49.2%" cy="62.3%" r="0.6" fill="#633e25" opacity="0.16" />
<circle cx="35.4%" cy="51.9%" r="1.31" fill="#633e25" opacity="0.17" />
<circle cx="25.4%" cy="79.5%" r="1.37" fill="#633e25" opacity="0.09" />
<circle cx="10.6%" cy="93.6%" r="0.46" fill="#633e25" opacity="0.14" />
<circle cx="20.1%" cy="98.3%" r="1.68" fill="#633e25" opacity="0.09" />
<circle cx="93.4%" cy="56.8%" r="0.67" fill="#633e25" opacity="0.18" />
<circle cx="28%" cy="95%" r="0.35" fill="#633e25" opacity="0.11" />
<circle cx="6.7%" cy="8.8%" r="0.63" fill="#633e25" opacity="0.16" />
<circle cx="38.7%" cy="98.9%" r="1.66" fill="#633e25" opacity="0.06" />
<circle cx="73.4%" cy="87.4%" r="1.18" fill="#633e25" opacity="0.16" />
<circle cx="67%" cy="91%" r="0.51" fill="#633e25" opacity="0.13" />
<circle cx="12.7%" cy="52.7%" r="0.57" fill="#633e25" opacity="0.08" /></g>
</svg>