<svg xmlns="http://www.w3.org/2000/svg" width="256" height="96" viewBox="0 0 256 96">
  <defs>
    <filter id="tapeFiber" x="0" y="0" width="100%" height="100%">
      <feTurbulence type="fractalNoise" baseFrequency="0.08 0.42" numOctaves="3" seed="1704" />
      <feColorMatrix type="saturate" values="0.35" />
      <feComponentTransfer>
        <feFuncA type="table" tableValues="0 0.25" />
      </feComponentTransfer>
    </filter>
  </defs>
  <rect width="256" height="96" fill="#f4dfaf" opacity="0.78" />
  <rect width="256" height="96" filter="url(#tapeFiber)" opacity="0.78" />
  <g opacity="0.2">
    <path d="M0 18h256M0 39h256M0 61h256M0 82h256" stroke="#7a5536" stroke-width="0.8" />
    <path d="M19 0v96M48 0v96M76 0v96M106 0v96M136 0v96M166 0v96M195 0v96M225 0v96" stroke="#fff2c8" stroke-width="0.7" />
  </g>
  <g><circle cx="28.4%" cy="54.2%" r="0.74" fill="#654328" opacity="0.2" />
<circle cx="50.9%" cy="43.2%" r="1.61" fill="#654328" opacity="0.23" />
<circle cx="7.3%" cy="92.3%" r="1.32" fill="#654328" opacity="0.16" />
<circle cx="4.7%" cy="60%" r="0.93" fill="#654328" opacity="0.21" />
<circle cx="83.7%" cy="41.3%" r="1.45" fill="#654328" opacity="0.16" />
<circle cx="22.4%" cy="43.1%" r="1.38" fill="#654328" opacity="0.1" />
<circle cx="45.6%" cy="92.3%" r="1.17" fill="#654328" opacity="0.21" />
<circle cx="29.6%" cy="34.6%" r="0.67" fill="#654328" opacity="0.16" />
<circle cx="16.8%" cy="6.2%" r="1.06" fill="#654328" opacity="0.2" />
<circle cx="78.6%" cy="86.4%" r="0.9" fill="#654328" opacity="0.2" />
<circle cx="90.9%" cy="64%" r="1.38" fill="#654328" opacity="0.2" />
<circle cx="11.5%" cy="75.4%" r="1.15" fill="#654328" opacity="0.19" />
<circle cx="72.5%" cy="97%" r="0.6" fill="#654328" opacity="0.1" />
<circle cx="28.9%" cy="99.6%" r="1.24" fill="#654328" opacity="0.14" />
<circle cx="24.2%" cy="98.6%" r="0.54" fill="#654328" opacity="0.24" />
<circle cx="65.4%" cy="55.8%" r="1.75" fill="#654328" opacity="0.16" />
<circle cx="19.4%" cy="17.8%" r="0.75" fill="#654328" opacity="0.22" />
<circle cx="70.6%" cy="98%" r="0.65" fill="#654328" opacity="0.18" />
<circle cx="2.9%" cy="33.6%" r="0.91" fill="#654328" opacity="0.18" />
<circle cx="97.1%" cy="78.1%" r="0.85" fill="#654328" opacity="0.21" />
<circle cx="55.6%" cy="10.2%" r="1.22" fill="#654328" opacity="0.1" />
<circle cx="94.5%" cy="66.7%" r="1.13" fill="#654328" opacity="0.17" />
<circle cx="67.5%" cy="34.4%" r="0.6" fill="#654328" opacity="0.24" />
<circle cx="9.4%" cy="55.8%" r="1.02" fill="#654328" opacity="0.13" />
<circle cx="15.3%" cy="33.8%" r="1.61" fill="#654328" opacity="0.1" />
<circle cx="91.9%" cy="42.4%" r="0.59" fill="#654328" opacity="0.21" />
<circle cx="47.6%" cy="75.7%" r="1.59" fill="#654328" opacity="0.2" />
<circle cx="8.3%" cy="93.8%" r="1.15" fill="#654328" opacity="0.1" />
<circle cx="75.1%" cy="48.2%" r="0.69" fill="#654328" opacity="0.19" />
<circle cx="60.2%" cy="93.9%" r="0.88" fill="#654328" opacity="0.23" />
<circle cx="68.2%" cy="22.1%" r="0.42" fill="#654328" opacity="0.1" />
<circle cx="9.3%" cy="70.5%" r="1.55" fill="#654328" opacity="0.23" />
<circle cx="59.9%" cy="94%" r="1.66" fill="#654328" opacity="0.14" />
<circle cx="9.3%" cy="4.2%" r="1.38" fill="#654328" opacity="0.21" />
<circle cx="55.9%" cy="10.3%" r="0.59" fill="#654328" opacity="0.14" />
<circle cx="43.4%" cy="18.5%" r="0.5" fill="#654328" opacity="0.13" />
<circle cx="49.7%" cy="73.8%" r="1.3" fill="#654328" opacity="0.09" />
<circle cx="68.2%" cy="51.1%" r="1.25" fill="#654328" opacity="0.22" />
<circle cx="45.3%" cy="29.5%" r="1.79" fill="#654328" opacity="0.11" />
<circle cx="63.9%" cy="6.2%" r="0.79" fill="#654328" opacity="0.12" />
<circle cx="85.3%" cy="33.8%" r="0.96" fill="#654328" opacity="0.21" />
<circle cx="90.8%" cy="88.6%" r="1.71" fill="#654328" opacity="0.17" />
<circle cx="85.2%" cy="3%" r="0.72" fill="#654328" opacity="0.17" />
<circle cx="52.1%" cy="18.7%" r="0.44" fill="#654328" opacity="0.24" />
<circle cx="74.8%" cy="44.8%" r="1.57" fill="#654328" opacity="0.17" />
<circle cx="62.5%" cy="28.5%" r="1.03" fill="#654328" opacity="0.13" />
<circle cx="44.7%" cy="69.6%" r="0.56" fill="#654328" opacity="0.18" />
<circle cx="23.9%" cy="39.4%" r="0.74" fill="#654328" opacity="0.23" />
<circle cx="100%" cy="83.8%" r="1.56" fill="#654328" opacity="0.15" />
<circle cx="6.2%" cy="21%" r="1.18" fill="#654328" opacity="0.12" />
<circle cx="19.6%" cy="64.5%" r="1.72" fill="#654328" opacity="0.18" />
<circle cx="35.8%" cy="31%" r="1.28" fill="#654328" opacity="0.16" />
<circle cx="22.3%" cy="14.7%" r="0.57" fill="#654328" opacity="0.19" />
<circle cx="88.7%" cy="36.5%" r="1.37" fill="#654328" opacity="0.13" />
<circle cx="38.6%" cy="0.7%" r="1.12" fill="#654328" opacity="0.15" />
<circle cx="91.4%" cy="16.9%" r="0.73" fill="#654328" opacity="0.17" />
<circle cx="89.2%" cy="70%" r="1.73" fill="#654328" opacity="0.16" />
<circle cx="26.9%" cy="46.9%" r="1.78" fill="#654328" opacity="0.16" />
<circle cx="69.6%" cy="50.6%" r="1.76" fill="#654328" opacity="0.19" />
<circle cx="47.5%" cy="62.3%" r="0.61" fill="#654328" opacity="0.23" />
<circle cx="40.6%" cy="31.9%" r="0.85" fill="#654328" opacity="0.23" />
<circle cx="93.9%" cy="6.1%" r="1.47" fill="#654328" opacity="0.14" />
<circle cx="25.8%" cy="26.6%" r="0.45" fill="#654328" opacity="0.12" />
<circle cx="20.2%" cy="55.8%" r="1.71" fill="#654328" opacity="0.16" />
<circle cx="14.7%" cy="13.6%" r="1.76" fill="#654328" opacity="0.14" />
<circle cx="25.6%" cy="32.3%" r="0.65" fill="#654328" opacity="0.11" />
<circle cx="72.3%" cy="62.8%" r="1.7" fill="#654328" opacity="0.14" />
<circle cx="91.6%" cy="90.1%" r="0.6" fill="#654328" opacity="0.16" />
<circle cx="54.7%" cy="40.4%" r="1.17" fill="#654328" opacity="0.21" />
<circle cx="26.6%" cy="88.4%" r="1.47" fill="#654328" opacity="0.12" />
<circle cx="31.8%" cy="96.2%" r="1.15" fill="#654328" opacity="0.1" />
<circle cx="15.6%" cy="43.7%" r="0.52" fill="#654328" opacity="0.23" />
<circle cx="14.8%" cy="31.2%" r="1.06" fill="#654328" opacity="0.13" />
<circle cx="76.8%" cy="63.6%" r="1.62" fill="#654328" opacity="0.15" />
<circle cx="91.4%" cy="47.7%" r="0.83" fill="#654328" opacity="0.21" />
<circle cx="24.3%" cy="61.9%" r="0.69" fill="#654328" opacity="0.22" />
<circle cx="66.3%" cy="79.5%" r="0.85" fill="#654328" opacity="0.09" />
<circle cx="37.1%" cy="54.7%" r="0.95" fill="#654328" opacity="0.1" />
<circle cx="8.4%" cy="3.8%" r="1.34" fill="#654328" opacity="0.23" />
<circle cx="34.3%" cy="38.3%" r="1.42" fill="#654328" opacity="0.21" />
<circle cx="4.2%" cy="34.7%" r="1.06" fill="#654328" opacity="0.22" />
<circle cx="56.4%" cy="47.3%" r="0.79" fill="#654328" opacity="0.21" />
<circle cx="17.1%" cy="97.3%" r="1.17" fill="#654328" opacity="0.22" />
<circle cx="53.1%" cy="95.6%" r="0.57" fill="#654328" opacity="0.22" />
<circle cx="53.4%" cy="83.5%" r="1.25" fill="#654328" opacity="0.14" />
<circle cx="77.2%" cy="97%" r="0.45" fill="#654328" opacity="0.14" />
<circle cx="34.3%" cy="89%" r="0.43" fill="#654328" opacity="0.23" />
<circle cx="84.9%" cy="67.6%" r="1.65" fill="#654328" opacity="0.09" />
<circle cx="74.5%" cy="31.2%" r="0.84" fill="#654328" opacity="0.16" />
<circle cx="42.1%" cy="10.4%" r="0.95" fill="#654328" opacity="0.12" />
<circle cx="66.3%" cy="48.8%" r="1.67" fill="#654328" opacity="0.21" />
<circle cx="37.3%" cy="79.6%" r="1.55" fill="#654328" opacity="0.22" />
<circle cx="70.7%" cy="82.5%" r="1.36" fill="#654328" opacity="0.17" />
<circle cx="0.2%" cy="27.1%" r="1.44" fill="#654328" opacity="0.21" />
<circle cx="14.5%" cy="36.8%" r="0.55" fill="#654328" opacity="0.24" />
<circle cx="27.3%" cy="30.2%" r="1.53" fill="#654328" opacity="0.13" />
<circle cx="93.6%" cy="23.3%" r="1.5" fill="#654328" opacity="0.21" />
<circle cx="13%" cy="0.1%" r="1.5" fill="#654328" opacity="0.22" />
<circle cx="82.3%" cy="84.8%" r="1.14" fill="#654328" opacity="0.19" />
<circle cx="87.6%" cy="72.3%" r="0.79" fill="#654328" opacity="0.13" />
<circle cx="49.5%" cy="1.5%" r="0.78" fill="#654328" opacity="0.17" />
<circle cx="61%" cy="77.6%" r="0.49" fill="#654328" opacity="0.17" />
<circle cx="80.7%" cy="77.4%" r="0.79" fill="#654328" opacity="0.18" />
<circle cx="72.9%" cy="94.6%" r="1.61" fill="#654328" opacity="0.09" />
<circle cx="6%" cy="8.7%" r="0.38" fill="#654328" opacity="0.17" />
<circle cx="49.7%" cy="83.9%" r="1.29" fill="#654328" opacity="0.11" />
<circle cx="35.1%" cy="33.2%" r="1.11" fill="#654328" opacity="0.23" />
<circle cx="66.3%" cy="2.7%" r="1.48" fill="#654328" opacity="0.14" />
<circle cx="97.7%" cy="61%" r="1.08" fill="#654328" opacity="0.13" />
<circle cx="16%" cy="1.1%" r="0.93" fill="#654328" opacity="0.09" />
<circle cx="91.1%" cy="86.3%" r="1.52" fill="#654328" opacity="0.22" />
<circle cx="85%" cy="0%" r="1.17" fill="#654328" opacity="0.19" />
<circle cx="32.9%" cy="80.6%" r="1.16" fill="#654328" opacity="0.14" />
<circle cx="34.4%" cy="49.7%" r="1.58" fill="#654328" opacity="0.09" />
<circle cx="21.1%" cy="67.2%" r="1.53" fill="#654328" opacity="0.19" />
<circle cx="87.3%" cy="69.8%" r="1.19" fill="#654328" opacity="0.23" />
<circle cx="99.6%" cy="76.8%" r="1.54" fill="#654328" opacity="0.21" />
<circle cx="23.3%" cy="70.6%" r="1.21" fill="#654328" opacity="0.08" />
<circle cx="30.4%" cy="84.4%" r="1.52" fill="#654328" opacity="0.14" />
<circle cx="78.2%" cy="55.7%" r="1.16" fill="#654328" opacity="0.13" /></g>
</svg>